<svg width="322" height="27" viewBox="0 0 322 27" fill="none" xmlns="http://www.w3.org/2000/svg">
<path d="M13.8558 13.1186C15.9657 13.4492 17.561 14.1864 18.6417 15.3305C19.7223 16.4492 20.2627 17.9492 20.2627 19.8305C20.2627 22.1186 19.4393 23.8602 17.7926 25.0551C16.1458 26.25 13.6886 26.8475 10.4208 26.8475H0L3.17884e-06 0.152543H9.64889C12.505 0.152543 14.7435 0.737288 16.3645 1.90678C17.9855 3.07627 18.796 4.75424 18.796 6.94068C18.796 8.54237 18.3586 9.86441 17.4838 10.9068C16.609 11.9492 15.3996 12.6864 13.8558 13.1186ZM0 1.29661V7.01695V12.7373H9.68748C12.1833 12.7373 14.1131 12.2542 15.4768 11.2881C16.8405 10.2966 17.5224 8.87288 17.5224 7.01695C17.5224 5.16102 16.8405 3.75 15.4768 2.7839C14.1131 1.79237 12.1833 1.29661 9.68748 1.29661H0ZM10.498 25.7034C13.3026 25.7034 15.4125 25.2203 16.8277 24.2542C18.2428 23.2881 18.9504 21.8008 18.9504 19.7924C18.9504 17.7585 18.2428 16.2585 16.8277 15.2924C15.4125 14.3263 13.3026 13.8432 10.498 13.8432H0V25.7034H10.498Z" fill="white"/>
<path d="M29.1782 0.152543H30.4905V25.6653H46.3147V26.8475H29.1782V0.152543Z" fill="white"/>
<path d="M69.7811 19.0297H53.6095L49.9815 26.8475H48.5535L61.0585 0.152543H62.3321L74.8371 26.8475H73.409L69.7811 19.0297ZM69.2793 17.9237L61.7146 1.63983L54.1113 17.9237L53.6095 19.0297H69.7811L69.2793 17.9237Z" fill="white"/>
<path d="M92.4569 27C89.8324 27 87.4523 26.4153 85.3167 25.2458C83.2068 24.0763 81.5472 22.4619 80.3379 20.4025C79.1285 18.3432 78.5239 16.0424 78.5239 13.5C78.5239 10.9576 79.1285 8.65678 80.3379 6.59746C81.5472 4.53814 83.2068 2.92373 85.3167 1.75424C87.4523 0.584746 89.8324 0 92.4569 0C94.3094 0 96.0462 0.305085 97.6673 0.915256C99.2883 1.5 100.678 2.37712 101.836 3.54661L101.025 4.38559C98.7865 2.25 95.9433 1.1822 92.4955 1.1822C90.1283 1.1822 87.9798 1.72881 86.05 2.82203C84.1202 3.88983 82.6021 5.36441 81.4957 7.24576C80.3893 9.12712 79.8361 11.2119 79.8361 13.5C79.8361 15.7881 80.3893 17.8729 81.4957 19.7542C82.6021 21.6356 84.1202 23.1229 86.05 24.2161C87.9798 25.2839 90.1283 25.8178 92.4955 25.8178C95.9176 25.8178 98.7608 24.7373 101.025 22.5763L101.836 23.4153C100.678 24.5847 99.2883 25.4746 97.6673 26.0847C96.072 26.6949 94.3352 27 92.4569 27Z" fill="white"/>
<path d="M118.08 13.2331L111.635 19.7924V26.8475H110.322V0.152543H111.635V18.1144L129.311 0.152543H130.932L118.968 12.3559L131.782 26.8475H130.161L118.08 13.2331Z" fill="white"/>
<path d="M161.276 27C158.652 27 156.271 26.4153 154.136 25.2458C152.026 24.0763 150.366 22.4619 149.157 20.4025C147.948 18.3432 147.343 16.0424 147.343 13.5C147.343 10.9576 147.948 8.65678 149.157 6.59746C150.366 4.53814 152.026 2.92373 154.136 1.75424C156.271 0.584746 158.652 0 161.276 0C163.129 0 164.865 0.305085 166.486 0.915256C168.107 1.5 169.497 2.37712 170.655 3.54661L169.844 4.38559C167.606 2.25 164.763 1.1822 161.315 1.1822C158.947 1.1822 156.799 1.72881 154.869 2.82203C152.939 3.88983 151.421 5.36441 150.315 7.24576C149.209 9.12712 148.655 11.2119 148.655 13.5C148.655 15.7881 149.209 17.8729 150.315 19.7542C151.421 21.6356 152.939 23.1229 154.869 24.2161C156.799 25.2839 158.947 25.8178 161.315 25.8178C164.737 25.8178 167.58 24.7373 169.844 22.5763L170.655 23.4153C169.497 24.5847 168.107 25.4746 166.486 26.0847C164.891 26.6949 163.154 27 161.276 27Z" fill="white"/>
<path d="M194.983 19.0297H178.811L175.183 26.8475H173.755L186.26 0.152543H187.534L200.039 26.8475H198.611L194.983 19.0297ZM194.481 17.9237L186.916 1.63983L179.313 17.9237L178.811 19.0297H194.983L194.481 17.9237Z" fill="white"/>
<path d="M225.832 26.8475L219.155 17.6568C218.28 17.8093 217.302 17.8856 216.222 17.8856H208.155V26.8475H206.843V16.7034L218.421 16.5801L206.843 1.29661V0.152543H216.222C219.592 0.152543 222.217 0.940679 224.095 2.51695C225.999 4.0678 226.951 6.22881 226.951 9C226.951 11.1356 226.385 12.928 225.253 14.3771C224.147 15.8008 222.551 16.7924 220.467 17.3517L227.376 26.8475H225.832ZM216.299 16.7034C219.309 16.7034 221.625 16.0424 223.246 14.7203C224.867 13.3729 225.678 11.4661 225.678 9C225.678 6.55932 224.867 4.67797 223.246 3.35593C221.625 2.00848 219.309 1.33475 216.299 1.33475H208.155L219.824 16.3302L220 17.1402L218.421 16.5801L208.155 16.7034H216.299Z" fill="white"/>
<path d="M251.258 13.1186C253.368 13.4492 254.963 14.1864 256.044 15.3305C257.124 16.4492 257.665 17.9492 257.665 19.8305C257.665 22.1186 256.841 23.8602 255.194 25.0551C253.548 26.25 251.09 26.8475 247.823 26.8475H237.402V0.152543H247.051C249.907 0.152543 252.145 0.737288 253.766 1.90678C255.387 3.07627 256.198 4.75424 256.198 6.94068C256.198 8.54237 255.76 9.86441 254.886 10.9068C254.011 11.9492 252.801 12.6864 251.258 13.1186ZM237.402 1.29661V12.7373H247.089C249.585 12.7373 251.515 12.2542 252.879 11.2881C254.242 10.2966 254.924 8.87288 254.924 7.01695C254.924 5.16102 254.242 3.75 252.879 2.7839C251.515 1.79237 249.585 1.29661 247.089 1.29661H237.402ZM247.9 25.7034C250.704 25.7034 252.814 25.2203 254.23 24.2542C255.645 23.2881 256.352 21.8008 256.352 19.7924C256.352 17.7585 255.645 16.2585 254.23 15.2924C252.814 14.3263 250.704 13.8432 247.9 13.8432H237.402V25.7034H247.9Z" fill="white"/>
<path d="M277.773 27C275.148 27 272.768 26.4153 270.633 25.2458C268.523 24.0763 266.863 22.4619 265.654 20.4025C264.444 18.3432 263.84 16.0424 263.84 13.5C263.84 10.9576 264.444 8.65678 265.654 6.59746C266.863 4.53814 268.523 2.92373 270.633 1.75424C272.768 0.584746 275.148 0 277.773 0C280.397 0 282.777 0.584746 284.913 1.75424C287.049 2.92373 288.721 4.53814 289.93 6.59746C291.14 8.65678 291.744 10.9576 291.744 13.5C291.744 16.0424 291.14 18.3432 289.93 20.4025C288.721 22.4619 287.049 24.0763 284.913 25.2458C282.777 26.4153 280.397 27 277.773 27ZM277.773 25.8178C280.14 25.8178 282.289 25.2839 284.218 24.2161C286.148 23.1483 287.666 21.6737 288.773 19.7924C289.879 17.911 290.432 15.8136 290.432 13.5C290.432 11.1864 289.879 9.08898 288.773 7.20763C287.666 5.32627 286.148 3.8517 284.218 2.7839C282.289 1.7161 280.14 1.1822 277.773 1.1822C275.406 1.1822 273.257 1.7161 271.327 2.7839C269.423 3.8517 267.918 5.32627 266.812 7.20763C265.705 9.08898 265.152 11.1864 265.152 13.5C265.152 15.8136 265.705 17.911 266.812 19.7924C267.918 21.6737 269.423 23.1483 271.327 24.2161C273.257 25.2839 275.406 25.8178 277.773 25.8178Z" fill="white"/>
<path d="M322 0.152543V26.8475H320.919L301.737 2.51695V26.8475H300.425V0.152543H301.506L320.688 24.483V0.152543H322Z" fill="white"/>
</svg>
