<svg width="28" height="3" viewBox="0 0 28 3" fill="none" xmlns="http://www.w3.org/2000/svg">
<path d="M0.974365 0.33352H1.59644C1.79293 0.33352 1.94154 0.348516 2.04225 0.378507C2.14396 0.408498 2.22591 0.469448 2.28812 0.561357C2.35033 0.652298 2.38143 0.799352 2.38143 1.00252C2.38143 1.1399 2.35921 1.23568 2.31478 1.28985C2.27133 1.34403 2.18493 1.38563 2.05558 1.41466C2.19975 1.44658 2.2975 1.49979 2.34884 1.57429C2.40019 1.64781 2.42586 1.76101 2.42586 1.91387V2.13154C2.42586 2.29021 2.4071 2.40775 2.36958 2.48418C2.33305 2.56061 2.27429 2.61285 2.19333 2.64091C2.11236 2.66897 1.94647 2.683 1.69567 2.683H0.974365V0.33352ZM1.59792 0.7355V1.25793C1.62458 1.25696 1.64531 1.25648 1.66012 1.25648C1.72134 1.25648 1.76035 1.24196 1.77713 1.21294C1.79392 1.18295 1.80231 1.0983 1.80231 0.958983C1.80231 0.885456 1.7954 0.83418 1.78158 0.805157C1.76775 0.775165 1.74948 0.7563 1.72677 0.74856C1.70505 0.740821 1.6621 0.736467 1.59792 0.7355ZM1.59792 1.62363V2.28102C1.6858 2.27811 1.74159 2.26457 1.76528 2.24038C1.78997 2.2162 1.80231 2.1567 1.80231 2.06189V1.84276C1.80231 1.74214 1.79145 1.68119 1.76973 1.65991C1.748 1.63862 1.69073 1.62653 1.59792 1.62363Z" fill="white"/>
<path d="M3.95704 0.33352V2.21281H4.33621V2.683H3.33349V0.33352H3.95704Z" fill="white"/>
<path d="M6.54871 1.70925C6.54871 1.94531 6.54278 2.11268 6.53093 2.21136C6.52007 2.30907 6.48453 2.39856 6.42429 2.47983C6.36505 2.5611 6.28457 2.6235 6.18287 2.66703C6.08117 2.71057 5.96268 2.73234 5.8274 2.73234C5.69904 2.73234 5.58351 2.71202 5.48082 2.67139C5.37912 2.62979 5.29716 2.56787 5.23495 2.48563C5.17275 2.4034 5.13572 2.31391 5.12387 2.21716C5.11202 2.12042 5.1061 1.95111 5.1061 1.70925V1.30727C5.1061 1.07121 5.11153 0.904321 5.12239 0.806608C5.13424 0.707927 5.16979 0.617953 5.22903 0.536687C5.28926 0.45542 5.37023 0.393019 5.47193 0.349483C5.57364 0.305948 5.69213 0.28418 5.8274 0.28418C5.95577 0.28418 6.0708 0.30498 6.1725 0.346581C6.27519 0.387214 6.35764 0.448648 6.41985 0.530882C6.48206 0.613116 6.51909 0.702606 6.53093 0.799352C6.54278 0.896098 6.54871 1.0654 6.54871 1.30727V1.70925ZM5.92516 0.937215C5.92516 0.827892 5.91874 0.758235 5.9059 0.728244C5.89405 0.697285 5.86887 0.681806 5.83036 0.681806C5.79778 0.681806 5.7726 0.694383 5.75483 0.719537C5.73804 0.743723 5.72965 0.816283 5.72965 0.937215V2.03431C5.72965 2.17073 5.73508 2.25489 5.74594 2.28682C5.75779 2.31875 5.78445 2.33471 5.82592 2.33471C5.86838 2.33471 5.89553 2.31633 5.90738 2.27957C5.91923 2.2428 5.92516 2.15525 5.92516 2.0169V0.937215Z" fill="white"/>
<path d="M8.92117 1.35806H8.29761V0.948824C8.29761 0.829827 8.2907 0.755816 8.27688 0.726792C8.26404 0.696801 8.23491 0.681806 8.18949 0.681806C8.13815 0.681806 8.10556 0.699704 8.09174 0.7355C8.07791 0.771296 8.071 0.848692 8.071 0.96769V2.05898C8.071 2.17314 8.07791 2.24764 8.09174 2.28247C8.10556 2.3173 8.13667 2.33471 8.18505 2.33471C8.23146 2.33471 8.26157 2.3173 8.2754 2.28247C8.29021 2.24764 8.29761 2.16589 8.29761 2.03722V1.74263H8.92117V1.83405C8.92117 2.07688 8.90339 2.24909 8.86785 2.35067C8.83329 2.45226 8.75577 2.54126 8.63531 2.61769C8.51583 2.69412 8.36821 2.73234 8.19245 2.73234C8.00978 2.73234 7.8592 2.69993 7.74071 2.63511C7.62222 2.57029 7.54372 2.4808 7.50522 2.36664C7.46671 2.25151 7.44745 2.07882 7.44745 1.84856V1.16215C7.44745 0.992844 7.45338 0.866107 7.46522 0.781938C7.47707 0.696801 7.51213 0.615051 7.57038 0.536687C7.62963 0.458322 7.71109 0.396889 7.81477 0.352386C7.91944 0.306915 8.03941 0.28418 8.17468 0.28418C8.35834 0.28418 8.50991 0.319008 8.62938 0.388665C8.74886 0.458322 8.82736 0.545394 8.86488 0.649879C8.9024 0.753398 8.92117 0.914963 8.92117 1.13458V1.35806Z" fill="white"/>
<path d="M11.3129 0.33352L10.9559 1.39434L11.3469 2.683H10.7027L10.4509 1.67587V2.683H9.82731V0.33352H10.4509V1.24632L10.7278 0.33352L11.3129 0.33352Z" fill="white"/>
<path d="M12.7626 0.33352V2.683H12.139V0.33352H12.7626Z" fill="white"/>
<path d="M15.0877 0.33352V2.683H14.5411L14.2168 1.61492V2.683H13.6954V0.33352H14.2168L14.5663 1.39144V0.33352L15.0877 0.33352Z" fill="white"/>
<path d="M17.4527 1.19843H16.8292V0.985104C16.8292 0.850627 16.8232 0.766458 16.8114 0.732597C16.7995 0.698736 16.7714 0.681806 16.727 0.681806C16.6885 0.681806 16.6623 0.696317 16.6485 0.725341C16.6346 0.754365 16.6277 0.828859 16.6277 0.948824V2.0764C16.6277 2.18185 16.6346 2.25151 16.6485 2.28537C16.6623 2.31826 16.6899 2.33471 16.7314 2.33471C16.7768 2.33471 16.8074 2.31585 16.8232 2.27811C16.84 2.24038 16.8484 2.16686 16.8484 2.05753V1.7789H16.7225V1.42191H17.4527V2.683H17.0602L17.0025 2.51466C16.96 2.58722 16.9062 2.64188 16.841 2.67864C16.7768 2.71444 16.7008 2.73234 16.6129 2.73234C16.5083 2.73234 16.41 2.70767 16.3182 2.65833C16.2273 2.60802 16.1582 2.5461 16.1108 2.47257C16.0634 2.39905 16.0338 2.32213 16.022 2.24183C16.0101 2.16057 16.0042 2.03915 16.0042 1.87759V1.17956C16.0042 0.955113 16.0165 0.792096 16.0412 0.690513C16.0659 0.588929 16.1365 0.496053 16.253 0.411884C16.3705 0.326748 16.5221 0.28418 16.7077 0.28418C16.8904 0.28418 17.0419 0.320943 17.1624 0.39447C17.2829 0.467997 17.3614 0.555552 17.3979 0.657135C17.4344 0.757751 17.4527 0.904321 17.4527 1.09685V1.19843Z" fill="white"/>
<path d="M21.0527 1.35806H20.4292V0.948824C20.4292 0.829827 20.4223 0.755816 20.4084 0.726792C20.3956 0.696801 20.3665 0.681806 20.321 0.681806C20.2697 0.681806 20.2371 0.699704 20.2233 0.7355C20.2095 0.771296 20.2026 0.848692 20.2026 0.96769V2.05898C20.2026 2.17314 20.2095 2.24764 20.2233 2.28247C20.2371 2.3173 20.2682 2.33471 20.3166 2.33471C20.363 2.33471 20.3931 2.3173 20.407 2.28247C20.4218 2.24764 20.4292 2.16589 20.4292 2.03722V1.74263H21.0527V1.83405C21.0527 2.07688 21.0349 2.24909 20.9994 2.35067C20.9648 2.45226 20.8873 2.54126 20.7669 2.61769C20.6474 2.69412 20.4998 2.73234 20.324 2.73234C20.1413 2.73234 19.9908 2.69993 19.8723 2.63511C19.7538 2.57029 19.6753 2.4808 19.6368 2.36664C19.5983 2.25151 19.579 2.07882 19.579 1.84856V1.16215C19.579 0.992844 19.5849 0.866107 19.5968 0.781938C19.6086 0.696801 19.6437 0.615051 19.7019 0.536687C19.7612 0.458322 19.8426 0.396889 19.9463 0.352386C20.051 0.306915 20.171 0.28418 20.3062 0.28418C20.4899 0.28418 20.6415 0.319008 20.7609 0.388665C20.8804 0.458322 20.9589 0.545394 20.9964 0.649879C21.034 0.753398 21.0527 0.914963 21.0527 1.13458V1.35806Z" fill="white"/>
<path d="M23.0356 0.33352L23.3926 2.683H22.7542L22.7231 2.2607H22.4995L22.4625 2.683H21.8167L22.1336 0.33352L23.0356 0.33352ZM22.7054 1.84421C22.6738 1.57816 22.6422 1.2497 22.6106 0.858851C22.5474 1.30775 22.5079 1.6362 22.4921 1.84421H22.7054Z" fill="white"/>
<path d="M24.1817 0.33352H24.6231C24.9174 0.33352 25.1163 0.344646 25.22 0.366897C25.3247 0.389149 25.4096 0.446229 25.4748 0.538138C25.5409 0.629079 25.574 0.774682 25.574 0.974946C25.574 1.1578 25.5508 1.28066 25.5044 1.34355C25.458 1.40643 25.3666 1.44416 25.2304 1.45674C25.3538 1.48673 25.4367 1.52688 25.4792 1.57719C25.5217 1.6275 25.5478 1.67394 25.5577 1.7165C25.5686 1.7581 25.574 1.87372 25.574 2.06334V2.683H24.9949V1.90226C24.9949 1.77649 24.9845 1.69861 24.9638 1.66861C24.944 1.63862 24.8912 1.62363 24.8053 1.62363V2.683H24.1817V0.33352ZM24.8053 0.7355V1.25793C24.8754 1.25793 24.9243 1.24874 24.9519 1.23036C24.9806 1.21101 24.9949 1.14957 24.9949 1.04605V0.916898C24.9949 0.842404 24.981 0.793547 24.9534 0.770328C24.9267 0.747109 24.8774 0.7355 24.8053 0.7355Z" fill="white"/>
<path d="M26.4994 0.33352H26.9659C27.2671 0.33352 27.4705 0.347065 27.5762 0.374153C27.6828 0.401242 27.7638 0.445745 27.8191 0.507663C27.8744 0.56958 27.9089 0.638754 27.9227 0.715183C27.9366 0.790645 27.9435 0.939634 27.9435 1.16215V1.98497C27.9435 2.19588 27.9331 2.33713 27.9124 2.40872C27.8926 2.47935 27.8576 2.53497 27.8072 2.57561C27.7569 2.61527 27.6947 2.64333 27.6206 2.65978C27.5465 2.67526 27.435 2.683 27.2859 2.683H26.4994V0.33352ZM27.1229 0.7355V2.28102C27.2128 2.28102 27.2681 2.2636 27.2888 2.22877C27.3096 2.19298 27.3199 2.09672 27.3199 1.93999V1.02719C27.3199 0.920768 27.3165 0.852562 27.3096 0.822571C27.3027 0.79258 27.2869 0.770812 27.2622 0.757267C27.2375 0.742756 27.1911 0.7355 27.1229 0.7355Z" fill="white"/>
</svg>
