<svg width="108" height="22" viewBox="0 0 108 22" fill="none" xmlns="http://www.w3.org/2000/svg">
<path d="M1.21748 0.943883L3.66528 1.19784C4.43847 1.27806 5.01697 1.39895 5.40079 1.56051C5.78849 1.72248 6.08558 2.00072 6.29206 2.39523C6.49895 2.78585 6.56007 3.38913 6.47542 4.20506C6.41818 4.75679 6.29085 5.13237 6.09343 5.33181C5.8999 5.53166 5.54259 5.66346 5.02151 5.72721C5.57548 5.91429 5.93796 6.16789 6.10896 6.48803C6.28037 6.80428 6.33422 7.26935 6.27053 7.88324L6.17983 8.75746C6.11372 9.39466 5.99092 9.85908 5.81143 10.1507C5.63583 10.4427 5.38288 10.6286 5.05259 10.7082C4.72229 10.7878 4.0637 10.7764 3.07681 10.674L0.238532 10.3796L1.21748 0.943883ZM3.50361 2.81283L3.28594 4.91094C3.39124 4.91794 3.47304 4.92446 3.53132 4.93051C3.77222 4.9555 3.93173 4.91314 4.00988 4.80343C4.08843 4.68984 4.15673 4.35329 4.21477 3.7938C4.24541 3.49851 4.23958 3.28976 4.19727 3.16755C4.15537 3.04146 4.09136 2.95824 4.00522 2.91789C3.92296 2.87793 3.75576 2.84291 3.50361 2.81283ZM3.13356 6.37962L2.85965 9.01975C3.20666 9.04397 3.43183 9.01235 3.53515 8.92489C3.64237 8.83783 3.71573 8.60392 3.75523 8.22315L3.84653 7.3431C3.88846 6.93902 3.87111 6.68981 3.7945 6.59546C3.71789 6.50112 3.49758 6.42917 3.13356 6.37962Z" fill="white"/>
<path d="M12.9541 2.16155L12.1711 9.70893L13.663 9.86372L13.4671 11.752L9.52152 11.3427L10.5005 1.90699L12.9541 2.16155Z" fill="white"/>
<path d="M22.5789 8.74462C22.4805 9.69265 22.3875 10.3624 22.2997 10.7539C22.2163 11.1419 22.0391 11.4868 21.7682 11.7885C21.5012 12.0907 21.1586 12.3085 20.7403 12.4418C20.3219 12.5751 19.8466 12.6142 19.3143 12.559C18.8092 12.5065 18.3631 12.3778 17.9759 12.1727C17.5931 11.9641 17.2964 11.682 17.0859 11.3263C16.8753 10.9707 16.7669 10.5961 16.7606 10.2028C16.7543 9.80939 16.8015 9.12703 16.9023 8.15568L17.0698 6.5413C17.1682 5.59326 17.2591 4.92525 17.3425 4.53726C17.4303 4.14578 17.6076 3.79895 17.8746 3.49677C18.1455 3.19498 18.4901 2.97743 18.9084 2.84411C19.3267 2.71078 19.8021 2.67174 20.3344 2.72696C20.8395 2.77937 21.2834 2.90986 21.6663 3.11846C22.0535 3.32357 22.3523 3.60395 22.5628 3.9596C22.7733 4.31526 22.8817 4.68977 22.8881 5.08315C22.8944 5.47653 22.8471 6.15889 22.7464 7.13024L22.5789 8.74462ZM20.4469 5.38951C20.4925 4.95046 20.4962 4.66809 20.4582 4.5424C20.4245 4.41323 20.3319 4.34079 20.1803 4.32507C20.0521 4.31177 19.9478 4.352 19.8674 4.44576C19.7913 4.53604 19.728 4.82402 19.6776 5.3097L19.2205 9.71573C19.1636 10.2636 19.1499 10.6038 19.1794 10.7365C19.2127 10.8695 19.311 10.9445 19.4741 10.9615C19.6412 10.9788 19.7557 10.916 19.8177 10.7732C19.8796 10.6304 19.9394 10.2812 19.9971 9.72561L20.4469 5.38951Z" fill="white"/>
<path d="M32.0606 8.30277L29.607 8.0482L29.7775 6.40468C29.8271 5.92678 29.8307 5.62672 29.7884 5.50452C29.7504 5.37883 29.6421 5.30672 29.4633 5.28817C29.2613 5.26721 29.1256 5.32579 29.0563 5.4639C28.987 5.60202 28.9275 5.91003 28.878 6.38793L28.4233 10.7707C28.3757 11.2291 28.3718 11.5311 28.4117 11.6767C28.4516 11.8222 28.5668 11.9048 28.7571 11.9246C28.9397 11.9435 29.0655 11.8859 29.1344 11.7516C29.2072 11.6178 29.2704 11.2925 29.324 10.7758L29.4468 9.59265L31.9004 9.84721L31.8623 10.2144C31.7611 11.1896 31.6194 11.874 31.4372 12.2674C31.2589 12.6613 30.9168 12.9871 30.411 13.2449C29.909 13.503 29.3122 13.5962 28.6206 13.5245C27.9018 13.4499 27.3228 13.2583 26.8835 12.9496C26.4443 12.6409 26.1727 12.2494 26.0687 11.7752C25.9652 11.2972 25.9614 10.5957 26.0573 9.67102L26.3433 6.91434C26.4139 6.23439 26.49 5.72782 26.5717 5.39463C26.6538 5.05755 26.8258 4.74355 27.0877 4.45262C27.3534 4.16208 27.6996 3.94862 28.1261 3.81222C28.5569 3.67233 29.0384 3.63 29.5707 3.68523C30.2934 3.76021 30.8753 3.96196 31.3164 4.29048C31.7575 4.61901 32.0301 5.00074 32.1342 5.43568C32.2388 5.86674 32.2453 6.52326 32.1538 7.40524L32.0606 8.30277Z" fill="white"/>
<path d="M41.8987 5.16454L40.0522 9.27915L41.0538 14.6141L38.5186 14.3511L37.9475 10.2036L37.5278 14.2483L35.0742 13.9937L36.0532 4.55807L38.5068 4.81263L38.1264 8.4785L39.5966 4.9257L41.8987 5.16454Z" fill="white"/>
<path d="M47.6033 5.75638L46.6243 15.1921L44.1707 14.9375L45.1496 5.50182L47.6033 5.75638Z" fill="white"/>
<path d="M56.7522 6.70558L55.7733 16.1413L53.6227 15.9181L52.7914 11.4962L52.3463 15.7857L50.2949 15.5729L51.2738 6.1372L53.3253 6.35004L54.2599 10.7414L54.7007 6.49274L56.7522 6.70558Z" fill="white"/>
<path d="M65.6981 11.1446L63.2445 10.8901L63.3334 10.0334C63.3894 9.49329 63.4012 9.15284 63.3687 9.01201C63.3361 8.87119 63.2325 8.7917 63.0576 8.77356C62.9061 8.75784 62.7971 8.80544 62.7306 8.91636C62.6641 9.02728 62.6059 9.32363 62.5559 9.80542L62.0861 14.3338C62.0421 14.7574 62.0403 15.0399 62.0806 15.1816C62.1213 15.3193 62.2232 15.3966 62.3864 15.4136C62.5651 15.4321 62.6934 15.3688 62.7713 15.2238C62.8531 15.0791 62.9168 14.7872 62.9623 14.3482L63.0784 13.2292L62.583 13.1778L62.7318 11.7441L65.605 12.0422L65.0796 17.1068L63.5351 16.9466L63.378 16.2469C63.1807 16.521 62.9461 16.7185 62.6744 16.8396C62.4069 16.9571 62.1003 16.998 61.7545 16.9621C61.3426 16.9194 60.9663 16.7802 60.6255 16.5445C60.289 16.3054 60.0428 16.0285 59.887 15.7139C59.7311 15.3993 59.6466 15.0783 59.6334 14.7509C59.6207 14.4197 59.648 13.9297 59.7153 13.2808L60.0061 10.4775C60.0996 9.57611 60.2161 8.92646 60.3556 8.52857C60.495 8.13068 60.8116 7.78651 61.3051 7.49605C61.8029 7.2021 62.4171 7.09302 63.1475 7.16881C63.8663 7.24338 64.4474 7.4529 64.8908 7.79737C65.3342 8.14184 65.6066 8.52552 65.708 8.9484C65.8099 9.36739 65.8207 9.96349 65.7405 10.7367L65.6981 11.1446Z" fill="white"/>
<path d="M79.7974 13.2554L77.3437 13.0009L77.5143 11.3573C77.5638 10.8794 77.5675 10.5794 77.5252 10.4572C77.4872 10.3315 77.3788 10.2594 77.2001 10.2408C76.998 10.2199 76.8624 10.2785 76.793 10.4166C76.7237 10.5547 76.6643 10.8627 76.6147 11.3406L76.16 15.7233C76.1124 16.1818 76.1086 16.4838 76.1485 16.6293C76.1884 16.7748 76.3035 16.8575 76.4939 16.8772C76.6765 16.8962 76.8023 16.8385 76.8712 16.7043C76.944 16.5705 77.0072 16.2452 77.0608 15.7284L77.1835 14.5453L79.6371 14.7999L79.599 15.167C79.4979 16.1423 79.3562 16.8266 79.174 17.2201C78.9957 17.6139 78.6536 17.9397 78.1477 18.1975C77.6457 18.4557 77.0489 18.5489 76.3573 18.4771C75.6385 18.4026 75.0595 18.2109 74.6203 17.9022C74.181 17.5935 73.9094 17.2021 73.8055 16.7279C73.7019 16.2498 73.6981 15.5484 73.794 14.6237L74.0801 11.867C74.1506 11.1871 74.2267 10.6805 74.3084 10.3473C74.3905 10.0102 74.5625 9.69621 74.8244 9.40528C75.0902 9.11475 75.4363 8.90128 75.8628 8.76488C76.2936 8.62499 76.7752 8.58267 77.3075 8.63789C78.0302 8.71287 78.612 8.91462 79.0532 9.24315C79.4943 9.57167 79.7669 9.9534 79.871 10.3883C79.9755 10.8194 79.982 11.4759 79.8905 12.3579L79.7974 13.2554Z" fill="white"/>
<path d="M88.0269 9.95032L88.4525 19.5317L85.9406 19.2711L85.9942 17.5624L85.1142 17.4711L84.7925 19.152L82.2514 18.8884L84.4776 9.58208L88.0269 9.95032ZM86.0978 15.8825C86.0843 14.8011 86.0968 13.4691 86.1354 11.8865C85.6997 13.6636 85.4074 14.9665 85.2586 15.7954L86.0978 15.8825Z" fill="white"/>
<path d="M92.5367 10.4182L94.2735 10.5984C95.4313 10.7185 96.2096 10.8444 96.6083 10.9761C97.0109 11.1082 97.3212 11.3721 97.5394 11.7678C97.7618 12.1601 97.8313 12.7583 97.7478 13.5626C97.6716 14.2969 97.5291 14.7809 97.3203 15.0145C97.1115 15.2481 96.7364 15.3624 96.195 15.3572C96.6681 15.5281 96.9778 15.7232 97.1239 15.9426C97.27 16.1619 97.3536 16.3591 97.3747 16.5341C97.4001 16.7056 97.3733 17.1721 97.2943 17.9337L97.0361 20.4223L94.7574 20.1858L95.0827 17.0503C95.1351 16.5452 95.1267 16.2282 95.0576 16.0993C94.9924 15.9708 94.7908 15.889 94.4528 15.8539L94.0114 20.1084L91.5577 19.8539L92.5367 10.4182ZM94.8228 12.2871L94.6051 14.3853C94.881 14.4139 95.0772 14.3969 95.1936 14.3344C95.3144 14.2684 95.3963 14.0275 95.4394 13.6118L95.4932 13.0931C95.5243 12.7939 95.4902 12.592 95.3911 12.4875C95.2959 12.3834 95.1065 12.3166 94.8228 12.2871Z" fill="white"/>
<path d="M101.656 11.3644L103.492 11.5548C104.677 11.6778 105.472 11.8152 105.877 11.9672C106.285 12.1195 106.585 12.3313 106.777 12.6025C106.969 12.8737 107.076 13.1657 107.098 13.4782C107.121 13.787 107.086 14.3881 106.994 15.2818L106.651 18.5863C106.563 19.4333 106.463 19.9963 106.352 20.2754C106.245 20.551 106.084 20.7601 105.868 20.9027C105.654 21.0414 105.397 21.1287 105.099 21.1645C104.801 21.1965 104.359 21.182 103.772 21.1211L100.678 20.8001L101.656 11.3644ZM103.943 13.2333L103.299 19.4402C103.652 19.4769 103.877 19.4296 103.973 19.2982C104.07 19.1629 104.151 18.7805 104.216 18.1511L104.596 14.4852C104.641 14.0578 104.655 13.7825 104.641 13.6592C104.626 13.5359 104.573 13.4421 104.481 13.3776C104.39 13.3092 104.211 13.2611 103.943 13.2333Z" fill="white"/>
</svg>
