<svg width="29" height="10" viewBox="0 0 29 10" fill="none" xmlns="http://www.w3.org/2000/svg">
<path d="M0.597168 0.556396H2.60754C3.78454 0.556396 4.87464 0.629923 5.28936 0.71893C5.70802 0.807936 6.04769 1.03626 6.30837 1.40389C6.57299 1.76766 6.70531 2.35007 6.70531 3.15112C6.70531 3.88252 6.61249 4.37399 6.42686 4.62553C6.24122 4.87707 5.87588 5.028 5.33083 5.0783C5.82453 5.19827 6.1563 5.35887 6.32614 5.5601C6.49597 5.76133 6.60064 5.94708 6.64014 6.11735C6.68358 6.28376 6.70531 6.7462 6.70531 7.50469V9.98332H4.38883V6.86036C4.38883 6.35728 4.34736 6.04576 4.26442 5.9258C4.18543 5.80583 3.97412 5.74585 3.6305 5.74585V9.98332L0.597168 9.9543L0.597168 0.556396ZM3.6305 2.19334V4.28305C3.91093 4.28305 4.10643 4.24629 4.21702 4.17276C4.33156 4.09536 4.38883 3.84963 4.38883 3.43556V2.91893C4.38883 2.62096 4.33354 2.42553 4.22295 2.33265C4.11631 2.23978 3.91883 2.19334 3.6305 2.19334Z" fill="white"/>
<path d="M9.56667 0.556396L14.2472 0.556396V2.5126H12.2249V4.28305H14.2472V6.11735H12.2249V9.9543H9.56667V0.556396Z" fill="white"/>
<path d="M19.3027 0.556396V9.9543H16.585V0.556396H19.3027Z" fill="white"/>
<path d="M21.8305 0.556396H24.4847C25.6893 0.556396 26.5029 0.610574 26.9256 0.71893C27.3521 0.827285 27.676 1.0053 27.8972 1.25297C28.1183 1.50064 28.2566 1.77733 28.3119 2.08305C28.3672 2.3849 28.3948 2.98085 28.3948 3.87091V7.16221C28.3948 8.00584 28.3534 8.57083 28.2704 8.8572C28.1914 9.1397 28.0512 9.36221 27.8498 9.52475C27.6483 9.68341 27.3995 9.79564 27.1033 9.86142C26.8071 9.92334 26.3608 9.9543 25.7644 9.9543H21.8305V5.25535V0.556396ZM24.6111 2.16431V8.34638C24.9705 8.34638 25.6933 8.27672 25.7762 8.13741C25.8591 7.99423 25.9006 7.60918 25.9006 6.98226V3.33107C25.9006 2.90539 25.8868 2.63256 25.8591 2.5126C25.8315 2.39263 25.7683 2.30556 25.6696 2.25139C25.5708 2.19334 24.8836 2.16431 24.6111 2.16431Z" fill="white"/>
</svg>
