<svg width="297" height="111" viewBox="0 0 297 111" fill="none" xmlns="http://www.w3.org/2000/svg">
<path d="M205.317 32.7838L200.678 37.7131C200.599 37.7965 200.494 37.8504 200.381 37.8659L189.08 39.4004C188.597 39.466 188.315 38.8723 188.671 38.5396L192.311 35.1397C192.386 35.0702 192.479 35.0251 192.58 35.0104L201.566 33.6917C202.027 33.624 202.322 34.1687 202.013 34.5178L199.92 36.8812C199.839 36.9737 199.725 37.0327 199.602 37.0466L192.96 37.7999C192.46 37.8567 192.199 37.2224 192.594 36.9106L193.331 36.3296M294.389 9.56359L295.24 12.4404C295.318 12.7052 295.167 12.9833 294.902 13.0617L258.943 23.699C258.678 23.7774 258.4 23.6262 258.321 23.3614L254.918 11.8543C254.839 11.5895 254.99 11.3113 255.255 11.233L291.215 0.59564C291.48 0.517308 291.758 0.668471 291.836 0.93327L292.829 4.2895M294.389 9.56359L295.827 9.13809C296.092 9.05976 296.243 8.7816 296.165 8.5168L294.889 4.20164C294.81 3.93684 294.532 3.78568 294.267 3.86401L292.829 4.2895M294.389 9.56359L292.829 4.2895M24.6139 84.6741L30.8469 82.8303C31.1117 82.752 31.3898 82.9031 31.4682 83.1679L33.6521 90.5506C33.7046 90.7282 33.6554 90.9207 33.52 91.047C31.1256 93.2807 25.5587 96.8432 20.5334 94.8997C20.3935 94.8456 20.2879 94.7272 20.2453 94.5834L18.0432 87.1392C17.9649 86.8744 18.1161 86.5963 18.3809 86.5179L24.6139 84.6741ZM25.4649 87.5509C27.2411 87.0254 27.0923 88.5603 26.7406 89.5749C26.6895 89.7224 26.7 89.8853 26.7792 90.0197L27.3751 91.0307C27.5403 91.3109 27.3981 91.6718 27.0862 91.764L26.0787 92.062C25.7223 92.1675 25.3795 91.861 25.4446 91.495L25.6385 90.405C25.6727 90.213 25.5906 90.0204 25.4386 89.8982C24.6069 89.2297 23.7283 88.0646 25.4649 87.5509ZM125.95 72.9471L115.744 67.7953C115.609 67.7268 115.444 67.7266 115.305 67.7885C105.817 72.0162 103.034 65.7003 102.549 61.3982C102.507 61.0298 102.881 60.7686 103.222 60.9154L109.235 63.5085C109.473 63.6109 109.749 63.5153 109.872 63.2881L112.117 59.1583C112.249 58.9156 112.159 58.612 111.916 58.4802L106.4 55.4825C106.038 55.2857 106.058 54.7627 106.44 54.6074C115.756 50.8143 118.899 57.0487 119.355 61.0232C119.377 61.2128 119.498 61.3762 119.676 61.4459L130.001 65.4916C136.236 68.2358 130.92 75.6482 125.95 72.9471ZM128.989 67.3555C126.503 66.005 124.478 69.7327 126.963 71.0833C129.339 72.3744 131.107 68.5068 128.989 67.3555ZM101.26 54.7013C110.649 44.7252 123.001 51.6195 123.627 61.2286C123.643 61.4648 123.814 61.6655 124.047 61.707L126.414 62.1281C126.702 62.1793 126.972 61.9734 126.999 61.6822L127.167 59.8793C127.186 59.6758 127.327 59.5042 127.523 59.4462L130.628 58.5278C130.863 58.4584 131.013 58.2299 130.975 57.9885C130.646 55.8886 129.764 53.4238 129.221 52.1013C129.125 51.8681 128.867 51.7488 128.625 51.8204L125.509 52.7421C125.328 52.7959 125.131 52.7424 125.002 52.604L122.407 49.8248C122.26 49.6675 122.23 49.4339 122.333 49.2448L123.677 46.7716C123.779 46.5825 123.751 46.3477 123.595 46.199C121.863 44.543 119.036 43.6185 117.509 43.2901C117.298 43.2448 117.087 43.348 116.984 43.5371L115.311 46.6169C115.204 46.813 114.98 46.9147 114.762 46.8661L110.393 45.8915C110.216 45.8519 110.074 45.7194 110.023 45.5453L109.397 43.4301C109.319 43.1653 109.041 43.0142 108.776 43.0925L102.063 45.0781C101.798 45.1565 101.647 45.4346 101.726 45.6994L102.616 48.7101C102.677 48.9165 102.599 49.1387 102.423 49.2619L99.0572 51.6111C98.9152 51.7102 98.732 51.7288 98.573 51.6602L95.6178 50.3859C95.3996 50.2918 95.1453 50.3642 95.0095 50.5592L91.9022 55.0198C91.7319 55.2644 91.8119 55.6027 92.0737 55.745L95.0089 57.34C95.1907 57.4388 95.2929 57.6394 95.2659 57.8445L94.7116 62.0643C94.6859 62.2602 94.5472 62.4226 94.3577 62.4787L91.3131 63.3793C91.0483 63.4576 90.8971 63.7358 90.9754 64.0006L92.5356 69.2747C92.6139 69.5395 92.8921 69.6906 93.1569 69.6123L96.2168 68.7071C96.3984 68.6534 96.5948 68.7069 96.724 68.8453L99.3196 71.6245C99.4665 71.7818 99.4963 72.0154 99.3935 72.2045L97.8036 75.1302C97.6624 75.3901 97.7764 75.7151 98.0491 75.8298L103.749 78.2272C103.952 78.3124 104.187 78.2554 104.327 78.0866L106.231 75.8038C106.337 75.6773 106.498 75.6109 106.662 75.6262L111.425 76.0699C111.628 76.0889 111.8 76.2299 111.858 76.4259L112.613 78.9781C112.691 79.2429 112.969 79.3941 113.234 79.3157L119.467 77.4719C119.732 77.3936 119.883 77.1154 119.805 76.8506L118.908 73.819C118.85 73.6229 118.917 73.4113 119.078 73.2847L120.33 72.2961C120.612 72.0737 120.575 71.6356 120.259 71.4642L118.115 70.299C117.936 70.2018 117.712 70.2274 117.551 70.3529C106.675 78.8647 92.2918 64.5944 101.26 54.7013ZM276.702 10.6243L276.975 10.5436C277.433 10.408 277.802 10.9315 277.521 11.3178L272.979 17.542C272.708 17.9134 272.12 17.7105 272.136 17.251V17.251C272.137 17.2096 272.144 17.1685 272.157 17.1289L272.928 14.6369C273.047 14.2555 272.692 13.8962 272.309 14.0095L272.246 14.0282C271.785 14.1645 271.416 13.6357 271.703 13.2502L275.72 7.8518C275.923 7.57812 276.354 7.79683 276.253 8.12268V8.12268C276.247 8.14274 276.243 8.16339 276.241 8.18431L276.062 10.0985C276.029 10.4507 276.363 10.7247 276.702 10.6243ZM172.687 53.7079L205.502 49.9034C205.619 49.8899 205.727 49.8361 205.807 49.7512L215.02 40.056C215.348 39.7113 215.054 39.147 214.584 39.2171L184.188 43.7459C184.103 43.7585 184.023 43.7924 183.956 43.8445L172.324 52.8153C171.923 53.1249 172.183 53.7663 172.687 53.7079ZM202.666 40.3145L169.286 44.2662C168.789 44.325 168.524 43.6987 168.911 43.3823L180.492 33.9274C180.563 33.8691 180.649 33.8316 180.741 33.8192L211.775 29.6052C212.243 29.5416 212.53 30.1027 212.204 30.4451L202.97 40.1624C202.89 40.247 202.782 40.3008 202.666 40.3145ZM166.504 33.1352L177.663 24.3285C177.73 24.2763 177.808 24.2417 177.891 24.2278L208.59 19.1113C209.063 19.0324 209.365 19.601 209.035 19.9489L199.848 29.6167C199.769 29.6998 199.663 29.7532 199.55 29.768L166.879 34.0235C166.375 34.089 166.106 33.4496 166.504 33.1352ZM25.9957 78.7696L26.7815 81.4258C26.8598 81.6906 27.138 81.8418 27.4028 81.7634L27.8822 81.6216C28.147 81.5433 28.2982 81.2651 28.2199 81.0003L27.2822 77.8306C27.2467 77.7106 27.1645 77.606 27.0563 77.5432C21.7018 74.4319 18.9369 77.9162 18.1636 80.1961C18.1319 80.2896 18.1322 80.3894 18.1602 80.4841L19.1101 83.6951C19.1884 83.9599 19.4666 84.1111 19.7314 84.0327L20.6903 83.7491C20.9551 83.6708 21.1063 83.3926 21.0279 83.1278L20.2283 80.4246C20.1951 80.3124 20.202 80.1903 20.2525 80.0848C21.4742 77.5336 24.2671 77.8896 25.7193 78.4605C25.8552 78.5139 25.9543 78.6296 25.9957 78.7696ZM1.34522 81.5603L11.5738 102.404C11.6305 102.519 11.7296 102.608 11.8506 102.653L31.7661 109.952C31.9807 110.031 32.2214 109.954 32.3506 109.765L43.6797 93.2362C43.7483 93.1361 43.7782 93.0146 43.7638 92.8941L41.0051 69.825C40.9765 69.5855 40.781 69.4006 40.5402 69.3853L19.3507 68.0462C19.2341 68.0388 19.1187 68.0725 19.0243 68.1414L1.49926 80.9362C1.30327 81.0793 1.23832 81.3425 1.34522 81.5603Z" stroke="white" stroke-linecap="round"/>
</svg>
